<?xml version="1.0" encoding="utf-8"?>
<!-- Generator: Adobe Illustrator 22.1.0, SVG Export Plug-In . SVG Version: 6.00 Build 0)  -->
<svg version="1.1" id="Layer_1" xmlns="http://www.w3.org/2000/svg" xmlns:xlink="http://www.w3.org/1999/xlink" x="0px" y="0px"
	 viewBox="0 0 512 512" style="enable-background:new 0 0 512 512;" xml:space="preserve">
<g>
	<path d="M472.5,236L276.1,39.5c-11.3-11.3-29.7-11.3-41,0l-40.8,40.8L246,132c27.2-9.2,52.9,16.8,43.6,43.9l49.9,49.9
		c34.4-11.9,61.5,31.1,35.6,56.9c-26.6,26.6-70.5-2.9-56.2-37.5l-46.6-46.5v122.4c25.4,12.6,22.4,42,9.1,55.2
		c-13.5,13.5-35.3,13.5-48.8,0c-17.6-17.7-11.1-47.1,11.3-56.2V196.6c-20.9-8.5-24.7-30.9-18.7-45.2l-51-51.1L39.5,235
		c-11.3,11.3-11.3,29.7,0,41L236,472.5c11.3,11.3,29.7,11.3,41,0L472.5,277C483.8,265.6,483.8,247.3,472.5,236L472.5,236z"/>
</g>
</svg>
